<svg width="2351" height="2341" viewBox="0 0 2351 2341" xmlns="http://www.w3.org/2000/svg" xmlns:xlink="http://www.w3.org/1999/xlink"><svg viewBox="0 0 16.13 9.2" width="16.13" height="9.2" id="arrow"><path d="M8.06 0l8.07 8.06L15 9.2 8.06 2.26 1.13 9.2 0 8.06 8.06 0z"/></svg><svg viewBox="0 0 14 14" width="14" height="14" id="close-envelope" x="17" y="10"><path d="M7 9L5.268 7.484.316 11.729c.18.167.423.271.691.271h11.986c.267 0 .509-.104.688-.271L8.732 7.484 7 9zm6.684-6.729A1.007 1.007 0 0 0 12.993 2H1.007c-.267 0-.509.104-.689.273L7 8l6.684-5.729zM0 2.878v8.308l4.833-4.107zm9.167 4.201L14 11.186V2.875z"/></svg><svg viewBox="0 0 15.48 15.48" width="15.48" height="15.48" id="cross" x="31" y="24"><path d="M15.48 1.41L14.06 0 7.74 6.32 1.42 0 0 1.41l6.32 6.33L0 14.06l1.41 1.42 6.33-6.33 6.32 6.33 1.42-1.42-6.33-6.32 6.33-6.33z"/></svg><svg width="18" height="18" viewBox="0 0 18 18" id="download" x="47" y="40"><g fill="#5C6F7C"><path d="M17 0L9 12 1 0zM0 16h18v2H0z"/></g></svg><svg viewBox="0 0 483.3 483.3" width="483.3" height="483.3" id="envelope" x="65" y="58"><path d="M424.3 57.75H59.1c-32.6 0-59.1 26.5-59.1 59.1v249.6c0 32.6 26.5 59.1 59.1 59.1h365.1c32.6 0 59.1-26.5 59.1-59.1v-249.5c.1-32.6-26.4-59.2-59-59.2zm32.1 308.7c0 17.7-14.4 32.1-32.1 32.1H59.1c-17.7 0-32.1-14.4-32.1-32.1v-249.5c0-17.7 14.4-32.1 32.1-32.1h365.1c17.7 0 32.1 14.4 32.1 32.1v249.5h.1zm-151.6-127.9l118.2-106c5.5-5 6-13.5 1-19.1-5-5.5-13.5-6-19.1-1l-163 146.3-31.8-28.4c-.1-.1-.2-.2-.2-.3-.7-.7-1.4-1.3-2.2-1.9L78.3 112.35c-5.6-5-14.1-4.5-19.1 1.1-5 5.6-4.5 14.1 1.1 19.1l119.6 106.9-119.1 111.5c-5.4 5.1-5.7 13.6-.6 19.1 2.7 2.8 6.3 4.3 9.9 4.3 3.3 0 6.6-1.2 9.2-3.6l120.9-113.1 32.8 29.3c2.6 2.3 5.8 3.4 9 3.4s6.5-1.2 9-3.5l33.7-30.2 120.2 114.2c2.6 2.5 6 3.7 9.3 3.7 3.6 0 7.1-1.4 9.8-4.2 5.1-5.4 4.9-14-.5-19.1l-118.7-112.7z"/></svg><svg viewBox="0 0 96.124 96.123" width="96.124" height="96.123" id="facebook" x="549" y="542"><path d="M72.089.02L59.624 0C45.62 0 36.57 9.285 36.57 23.656v10.907H24.037a1.96 1.96 0 0 0-1.96 1.961v15.803a1.96 1.96 0 0 0 1.96 1.96H36.57v39.876a1.96 1.96 0 0 0 1.96 1.96h16.352a1.96 1.96 0 0 0 1.96-1.96V54.287h14.654a1.96 1.96 0 0 0 1.96-1.96l.006-15.803a1.963 1.963 0 0 0-1.961-1.961H56.842v-9.246c0-4.444 1.059-6.7 6.848-6.7l8.397-.003a1.96 1.96 0 0 0 1.959-1.96V1.98A1.96 1.96 0 0 0 72.089.02z"/></svg><svg viewBox="0 0 555.562 555.562" width="555.562" height="555.562" id="google-plus" x="646" y="639"><path d="M543.312 85.472H482.32c-6.762 0-12.24-5.477-12.24-12.24V12.24c0-6.763-5.477-12.24-12.24-12.24h-18.256c-6.762 0-12.238 5.478-12.238 12.24v60.992c0 6.763-5.479 12.24-12.24 12.24h-60.992c-6.764 0-12.24 5.478-12.24 12.24v18.256c0 6.763 5.477 12.24 12.24 12.24h60.992c6.762 0 12.24 5.478 12.24 12.24v60.992c0 6.763 5.477 12.24 12.238 12.24h18.256c6.764 0 12.24-5.477 12.24-12.24v-60.992c0-6.762 5.479-12.24 12.24-12.24h60.992c6.764 0 12.24-5.478 12.24-12.24V97.712c0-6.763-5.476-12.24-12.24-12.24zM35.719 521.669c10.459 7.681 22.534 14.131 36.225 19.37 13.69 5.22 27.265 8.953 40.729 11.181 13.464 2.222 26.763 3.342 39.896 3.342 59.646 0 106.39-14.578 140.228-43.733 31.156-27.161 46.744-58.538 46.744-94.15 0-12.681-1.836-24.541-5.508-35.558-3.672-11.016-8.465-20.478-14.357-28.378a176.302 176.302 0 0 0-19.529-22.032c-7.123-6.787-14.246-12.962-21.365-18.525-7.124-5.562-13.635-10.899-19.529-16.028-5.9-5.116-10.686-10.459-14.357-16.028-3.672-5.557-5.508-11.236-5.508-17.025 0-8.017 2.559-15.526 7.681-22.534 5.117-7.008 11.353-13.801 18.697-20.368 7.344-6.561 14.688-13.739 22.038-21.53 7.344-7.791 13.574-18.084 18.697-30.881 5.115-12.803 7.68-27.436 7.68-43.905 0-19.584-4.338-38.397-13.023-56.426-6.775-14.07-15.715-25.698-26.824-34.884-5.208-4.309-4.418-7.185 2.338-7.185h20.593c6.764 0 16.971-2.767 22.805-6.182l23.947-14.015c5.832-3.415 5.086-6.181-1.678-6.181H208.677c-20.698 0-41.518 2.228-62.436 6.677-30.943 6.897-56.978 22.656-78.122 47.247-21.15 24.596-31.72 52.473-31.72 83.63 0 32.944 11.854 60.325 35.557 82.136 23.703 21.812 52.136 32.718 85.301 32.718 3.586 0 7.484-.159 11.708-.478 6.457-.489 11.236.447 10.581 2.43a108.254 108.254 0 0 1-1.261 3.562c-1.114 3.005-2.001 5.398-2.668 7.179s-1.224 3.954-1.671 6.505a44.99 44.99 0 0 0-.667 7.846c0 12.001 4.749 25.263 14.26 39.792 3.702 5.655 1.627 10.086-5.117 10.465a392.431 392.431 0 0 0-37.852 3.997c-16.475 2.563-33.721 6.572-51.75 12.025-18.03 5.453-34.168 13.354-48.409 23.703-14.248 10.349-24.933 22.649-32.051 36.892C4.123 422.82.01 437.839.01 451.407c0 14.92 3.342 28.434 10.019 40.569 6.663 12.11 15.225 22.012 25.69 29.693zm122.865-297.977c-10.239-5.784-18.923-13.299-26.041-22.534-7.124-9.235-13.354-19.639-18.697-31.218-5.343-11.573-9.296-23.152-11.854-34.725-2.559-11.567-3.837-22.589-3.837-33.054 0-21.371 5.679-39.731 17.026-55.086C126.534 31.72 142.556 24.04 163.26 24.04c14.688 0 27.987 4.565 39.896 13.696 11.903 9.131 21.249 20.698 28.042 34.719 6.787 14.027 12.02 28.55 15.692 43.575 3.672 15.024 5.508 29.21 5.508 42.57 0 16.879-2.785 31.225-8.348 43.042-2.876 6.114-9.29 15.184-14.572 19.395-9.492 7.564-22.332 11.346-38.513 11.346-11.346-.007-22.148-2.895-32.381-8.691zM70.775 400.315c6.01-10.459 13.69-18.807 23.036-25.043 9.345-6.23 20.251-11.353 32.717-15.355 12.46-4.009 24.48-6.787 36.059-8.348 11.573-1.561 23.373-2.344 35.392-2.344 3.109 0 5.894.043 8.36.122 4.615.153 10.625 2.1 13.434 4.039l5.085 3.52c5.453 3.788 9.125 6.347 11.016 7.675 1.885 1.334 5.343 3.898 10.349 7.681 5.006 3.788 8.568 6.628 10.686 8.519 2.111 1.892 5.177 4.73 9.18 8.513 4.009 3.788 6.953 7.068 8.85 9.854a957.132 957.132 0 0 0 7.013 10.178c2.779 4.009 4.725 7.846 5.846 11.523a185.734 185.734 0 0 1 3.17 12.02c1.004 4.34 1.506 8.85 1.506 13.514 0 14.026-3.066 26.267-9.18 36.726-6.126 10.459-14.413 18.642-24.873 24.548-10.465 5.894-21.646 10.232-33.556 13.017-11.91 2.785-24.431 4.174-37.559 4.174-14.247 0-28.378-1.671-42.399-5.006a168.938 168.938 0 0 1-40.227-15.189c-12.803-6.794-23.152-16.139-31.053-28.048-7.901-11.91-11.854-25.423-11.854-40.563-.013-13.364 2.992-25.262 9.002-35.727z"/></svg><svg viewBox="0 0 430.117 430.117" width="430.117" height="430.117" id="linkedin" x="1202" y="1195"><path d="M430.117 261.543V420.56h-92.188V272.193c0-37.271-13.334-62.707-46.703-62.707-25.473 0-40.632 17.142-47.301 33.724-2.432 5.928-3.058 14.179-3.058 22.477V420.56h-92.219s1.242-251.285 0-277.32h92.21v39.309l-.606.896h.606v-.896c12.251-18.869 34.13-45.824 83.102-45.824 60.673-.001 106.157 39.636 106.157 124.818zM52.183 9.558C20.635 9.558 0 30.251 0 57.463c0 26.619 20.038 47.94 50.959 47.94h.616c32.159 0 52.159-21.317 52.159-47.94-.606-27.212-20-47.905-51.551-47.905zM5.477 420.56h92.184V143.24H5.477v277.32z"/></svg><svg viewBox="0 0 20 17" width="20" height="17" id="presentation" x="1633" y="1626"><path d="M1 15h18v2H1zm19-2H0V0h20zM2 11h16V2H2z"/></svg><svg viewBox="0 0 18 20" width="18" height="20" id="release" x="1653" y="1643"><path d="M4 13h10v2H4zm0-4h10v2H4zm0-4h10v2H4zm14 15H0V0h18zM2 18h14V2H2z"/></svg><svg viewBox="0 0 23.31 23.31" width="23.31" height="23.31" id="search" x="1671" y="1663"><path d="M22.87 20.75l-8.26-8.26a8 8 0 1 0-2.12 2.12l8.26 8.26a1.5 1.5 0 0 0 2.12-2.12zM11 13.16A6 6 0 1 1 13.16 11 6 6 0 0 1 11 13.16z"/></svg><svg viewBox="0 0 21.13 19.49" width="21.13" height="19.49" id="sound" x="1695" y="1687"><path d="M10 .72l-4.87 5H0v8h5.13l4.87 5v-18zm7.78 18.77l-1.6-1.19a14.87 14.87 0 0 0 2.95-8.91 14.93 14.93 0 0 0-2.5-8.28L18.29 0a16.92 16.92 0 0 1 2.83 9.39 16.85 16.85 0 0 1-3.34 10.1zm-4.1-2.86l-1.59-1.21a9.9 9.9 0 0 0 2-6A10 10 0 0 0 12.52 4l1.67-1.08a11.94 11.94 0 0 1 1.93 6.51 11.87 11.87 0 0 1-2.44 7.2z"/></svg><svg viewBox="0 0 612 612" width="612" height="612" id="twitter" x="1717" y="1707"><path d="M612 116.258a250.714 250.714 0 0 1-72.088 19.772c25.929-15.527 45.777-40.155 55.184-69.411-24.322 14.379-51.169 24.82-79.775 30.48-22.907-24.437-55.49-39.658-91.63-39.658-69.334 0-125.551 56.217-125.551 125.513 0 9.828 1.109 19.427 3.251 28.606-104.326-5.24-196.835-55.223-258.75-131.174-10.823 18.51-16.98 40.078-16.98 63.101 0 43.559 22.181 81.993 55.835 104.479a125.556 125.556 0 0 1-56.867-15.756v1.568c0 60.806 43.291 111.554 100.693 123.104-10.517 2.83-21.607 4.398-33.08 4.398-8.107 0-15.947-.803-23.634-2.333 15.985 49.907 62.336 86.199 117.253 87.194-42.947 33.654-97.099 53.655-155.916 53.655-10.134 0-20.116-.612-29.944-1.721 55.567 35.681 121.536 56.485 192.438 56.485 230.948 0 357.188-191.291 357.188-357.188l-.421-16.253c24.666-17.593 46.005-39.697 62.794-64.861z"/></svg><svg viewBox="0 0 22 22" width="22" height="22" id="video" x="2329" y="2319"><path d="M11 22a11 11 0 1 1 11-11 11 11 0 0 1-11 11zm0-20a9 9 0 1 0 9 9 9 9 0 0 0-9-9zM8 15V7l8 4-8 4z"/></svg></svg>